{"title":"Silent Souls (2010) WEBRip 720p ENG SUBS x264-pong","uid":15068389,"size":684831797,"categoryP":"video","categoryS":"movies","magnet":"?xt=urn:btih:46509bb01752b6ac0c888c6cf30b186701b59707&amp;dn=Silent+Souls+%282010%29+WEBRip+720p+ENG+SUBS+x264-pong&amp;tr=udp%3A%2F%2Ftracker.leechers-paradise.org%3A6969&amp;tr=udp%3A%2F%2Fzer0day.ch%3A1337&amp;tr=udp%3A%2F%2Fopen.demonii.com%3A1337&amp;tr=udp%3A%2F%2Ftracker.coppersurfer.tk%3A6969&amp;tr=udp%3A%2F%2Fexodus.desync.com%3A6969","seeders":0,"leechers":1,"uploader":"Pongydog","files":1,"time":1466794888,"description":"http://www.imdb.com/title/tt1693830/\r\n\r\nPresent days. A man and his companion go on a journey to cremate the dead body of the former beloved wife, on a riverbank in the area where they spent their honeymoon. \r\n\r\nDirector: Aleksey Fedorchenko  \r\n\r\nWriter: Denis Osokin  \r\n\r\nStars: Igor Sergeev,  Yuriy Tsurilo,  Yuliya Aug  | \r\n\r\nGeneral\r\nComplete name                            : C:Usersuser1VideosSilent Souls (2010) WEBRip 720p ENG SUBS x264-pong.mp4\r\nFormat                                   : MPEG-4\r\nFormat profile                           : Base Media\r\nCodec ID                                 : isom (isom/iso2/avc1/mp41)\r\nFile size                                : 653 MiB\r\nDuration                                 : 1h 14mn\r\nOverall bit rate                         : 1 230 Kbps\r\nEncoded date                             : UTC 2016-06-24 02:32:35\r\nTagged date                              : UTC 2016-06-24 02:32:35\r\nWriting application                      : Lavf57.36.100\r\n\r\nVideo\r\nID                                       : 1\r\nFormat                                   : AVC\r\nFormat/Info                              : Advanced Video Codec\r\nFormat profile                           :   \r\nFormat settings, CABAC                   : Yes\r\nFormat settings, ReFrames                : 5 frames\r\nCodec ID                                 : avc1\r\nCodec ID/Info                            : Advanced Video Coding\r\nDuration                                 : 1h 14mn\r\nBit rate                                 : 1 100 Kbps\r\nWidth                                    : 1 280 pixels\r\nHeight                                   : 544 pixels\r\nDisplay aspect ratio                     : 2.35:1\r\nFrame rate mode                          : Constant\r\nFrame rate                               : 25.000 fps\r\nColor space                              : YUV\r\nChroma subsampling                       : 4:2:0\r\nBit depth                                : 8 bits\r\nScan type                                : Progressive\r\nBits/(Pixel*Frame)                       : 0.063\r\nStream size                              : 582 MiB (89%)\r\nWriting library                          : x264 core 148 r2643\r\nEncoding settings                        : cabac=1 / ref=5 / deblock=1:0:0 / analyse=0x3:0x133 / me=umh / subme=8 / psy=1 / psy_rd=1.00:0.00 / mixed_ref=0 / me_range=16 / chroma_me=1 / trellis=1 / 8x8dct=1 / cqm=0 / deadzone=21,11 / fast_pskip=1 / chroma_qp_offset=-2 / threads=3 / lookahead_threads=1 / sliced_threads=0 / nr=0 / decimate=1 / interlaced=0 / bluray_compat=0 / constrained_intra=0 / bframes=3 / b_pyramid=0 / b_adapt=2 / b_bias=0 / direct=3 / weightb=1 / open_gop=0 / weightp=2 / keyint=250 / keyint_min=25 / scenecut=40 / intra_refresh=0 / rc_lookahead=50 / rc=abr / mbtree=1 / bitrate=1100 / ratetol=1.0 / qcomp=0.60 / qpmin=10 / qpmax=69 / qpstep=4 / vbv_maxrate=2400 / vbv_bufsize=24000 / nal_hrd=none / filler=0 / ip_ratio=1.40 / aq=3:1.00\r\nEncoded date                             : UTC 2016-06-24 02:32:35\r\nTagged date                              : UTC 2016-06-24 02:32:35\r\n\r\nAudio\r\nID                                       : 2\r\nFormat                                   : AAC\r\nFormat/Info                              : Advanced Audio Codec\r\nFormat profile                           : LC\r\nCodec ID                                 : 40\r\nDuration                                 : 1h 14mn\r\nBit rate mode                            : Constant\r\nBit rate                                 : 128 Kbps\r\nChannel(s)                               : 2 channels\r\nChannel positions                        : Front: L R\r\nSampling rate                            : 48.0 KHz\r\nFrame rate                               : 46.875 fps (1024 spf)\r\nCompression mode                         : Lossy\r\nStream size                              : 67.9 MiB (10%)\r\nDefault                                  : Yes\r\nAlternate group                          : 1\r\nEncoded date                             : UTC 2016-06-24 02:32:35\r\nTagged date                              : UTC 2016-06-24 02:32:35","torrent":{"xt":"urn:btih:46509bb01752b6ac0c888c6cf30b186701b59707","amp;dn":"Silent+Souls+%282010%29+WEBRip+720p+ENG+SUBS+x264-pong","amp;tr":["udp%3A%2F%2Ftracker.leechers-paradise.org%3A6969","udp%3A%2F%2Fzer0day.ch%3A1337","udp%3A%2F%2Fopen.demonii.com%3A1337","udp%3A%2F%2Ftracker.coppersurfer.tk%3A6969","udp%3A%2F%2Fexodus.desync.com%3A6969"],"infoHash":"46509bb01752b6ac0c888c6cf30b186701b59707","infoHashBuffer":{"type":"Buffer","data":[70,80,155,176,23,82,182,172,12,136,140,108,243,11,24,103,1,181,151,7]},"announce":[],"urlList":[]}}